<svg id="Layer_1" data-name="Layer 1" xmlns="http://www.w3.org/2000/svg" width="1366" height="229" viewBox="0 0 1366 229"><defs><style>.cls-1,.cls-5{fill:#f1c4f2;}.cls-2{fill:#1712a6;}.cls-3{fill:#ff00ec;}.cls-4{fill:#f2142a;}.cls-5{stroke:#1712a6;stroke-miterlimit:10;}</style></defs><rect class="cls-1" width="1366" height="229"/><path class="cls-2" d="M287.89,121.55a12.21,12.21,0,0,1,5.86,4,10.74,10.74,0,0,1,1.86,6.5,11.74,11.74,0,0,1-1.61,6.08,12.53,12.53,0,0,1-4.61,4.5,12.82,12.82,0,0,1-3.94,1.48,31.39,31.39,0,0,1-6.17.46H260.16a5.06,5.06,0,0,1-3.46-1,4,4,0,0,1-1-3.11,4,4,0,0,1,1-3,3.91,3.91,0,0,1,2.91-1h.63V109.24h-.63a3.88,3.88,0,0,1-2.91-1,4.12,4.12,0,0,1-1-3,4,4,0,0,1,1.06-3.1,5,5,0,0,1,3.44-1H277q7.73,0,11.74,3c2.67,2,4,4.93,4,8.79a10.06,10.06,0,0,1-1.23,5A9.54,9.54,0,0,1,287.89,121.55ZM269.21,109v9.23h4.94c3,0,5.12-.35,6.36-1.06a3.8,3.8,0,0,0,1.85-3.59,3.86,3.86,0,0,0-1.67-3.48Q279,109,275.29,109Zm0,16.59v11.17h5.49c3.88,0,6.62-.42,8.21-1.28a4.48,4.48,0,0,0,2.38-4.28A4.55,4.55,0,0,0,283,126.9q-2.28-1.29-7.95-1.29Z"/><path class="cls-2" d="M326.84,136.56h7.87a5.51,5.51,0,0,1,3.59.92,3.81,3.81,0,0,1,1.07,3,4,4,0,0,1-1.08,3.11,5.38,5.38,0,0,1-3.58,1H310a5.34,5.34,0,0,1-3.57-1,4,4,0,0,1-1.08-3.11,3.88,3.88,0,0,1,1-3,5.52,5.52,0,0,1,3.61-.92h7.87V118.77h-4.14a5.3,5.3,0,0,1-3.51-.94,3.92,3.92,0,0,1-1.06-3.09,4,4,0,0,1,1-3.08,5.35,5.35,0,0,1,3.55-.91h11a2.53,2.53,0,0,1,1.57.42,1.36,1.36,0,0,1,.55,1.15Zm-5.27-42.37c1.78,0,3,.34,3.55,1s.88,2.32.88,4.9-.26,4-.79,4.64-1.76.89-3.72.89-3.13-.28-3.68-.84-.82-1.68-.82-3.37q0-4.68.84-6C318.39,94.62,319.64,94.19,321.57,94.19Z"/><path class="cls-2" d="M358.18,144.07a8,8,0,0,1-2,1.12,5.88,5.88,0,0,1-2.07.38,2.63,2.63,0,0,1-2.22-.84,5.56,5.56,0,0,1-.64-3.15v-4.87a5.54,5.54,0,0,1,.81-3.42,3.34,3.34,0,0,1,2.78-1,4.06,4.06,0,0,1,3.52,2.09,14.41,14.41,0,0,0,1.35,1.68,12,12,0,0,0,4.18,2.42,17,17,0,0,0,5.42.8,7.65,7.65,0,0,0,4.21-1,3.09,3.09,0,0,0,1.57-2.68q0-3-8.46-4.1c-1.24-.14-2.22-.28-2.93-.4-4.24-.59-7.41-1.74-9.48-3.46a8.53,8.53,0,0,1-3.11-6.94,9.41,9.41,0,0,1,3.73-8q3.74-2.82,10.66-2.82a31.73,31.73,0,0,1,4.89.38,36.46,36.46,0,0,1,5.14,1.19,5.4,5.4,0,0,1,1.63-1.35,4.12,4.12,0,0,1,1.93-.44,2.81,2.81,0,0,1,2.28.93,4.23,4.23,0,0,1,.79,2.8v4.51a3.44,3.44,0,0,1-.8,2.43,3,3,0,0,1-2.27.86c-1,0-2.72-.87-5.15-2.62a12.48,12.48,0,0,0-7.31-2.61,8.77,8.77,0,0,0-4.43.93,2.86,2.86,0,0,0-1.57,2.58q0,2.57,6.59,3.44l3,.37q8.28,1.22,11.37,3.61t3.1,7.12a10,10,0,0,1-4.08,8.55q-4.09,3-11.6,3a40.93,40.93,0,0,1-5.63-.38A38,38,0,0,1,358.18,144.07Z"/><path class="cls-2" d="M411.45,112.8h11.17a5.51,5.51,0,0,1,3.59.91,3.83,3.83,0,0,1,1.06,3,4,4,0,0,1-1.08,3.11,5.33,5.33,0,0,1-3.57,1H411.45v9.37c0,2.64.4,4.44,1.21,5.42s2.22,1.47,4.25,1.47a17.74,17.74,0,0,0,6.74-1.65,17.34,17.34,0,0,1,5.2-1.65,3.38,3.38,0,0,1,2.58,1.19,4.11,4.11,0,0,1,1.08,2.87c0,1.89-1.7,3.6-5.11,5.15a27.7,27.7,0,0,1-11.59,2.33,19.68,19.68,0,0,1-6.63-1,10.48,10.48,0,0,1-4.5-2.93,8.73,8.73,0,0,1-1.72-3.52,31,31,0,0,1-.52-6.84V120.82H399a5.16,5.16,0,0,1-3.53-1,4,4,0,0,1-1.05-3.11,3.88,3.88,0,0,1,1-3.06,5.48,5.48,0,0,1,3.55-.89h3.44v-8.57a4.89,4.89,0,0,1,1.05-3.56,6.38,6.38,0,0,1,6.92,0,4.93,4.93,0,0,1,1,3.56Z"/><path class="cls-2" d="M458.46,124.7v11.86h8.65a5.36,5.36,0,0,1,3.53.92,3.84,3.84,0,0,1,1,3,4,4,0,0,1-1,3.11,5.18,5.18,0,0,1-3.53,1H446.63a5.3,5.3,0,0,1-3.58-1,4,4,0,0,1-1.07-3.11,3.84,3.84,0,0,1,1-3,5.56,5.56,0,0,1,3.63-.92h2.79V118.77h-1.58a5.39,5.39,0,0,1-3.56-.94,4,4,0,0,1-1-3.09,4,4,0,0,1,1-3.08,5.34,5.34,0,0,1,3.57-.91h7.8a2.49,2.49,0,0,1,1.54.42,1.36,1.36,0,0,1,.55,1.15v5.42a29.94,29.94,0,0,1,7.45-6.12,15.72,15.72,0,0,1,7.46-1.83,9.23,9.23,0,0,1,5.74,1.63,5.24,5.24,0,0,1,2.13,4.38,4.6,4.6,0,0,1-1.47,3.5,5.3,5.3,0,0,1-3.77,1.37,8.5,8.5,0,0,1-3.9-1.21,8.49,8.49,0,0,0-3.13-1.21,7.9,7.9,0,0,0-4.14,1.58A38.22,38.22,0,0,0,458.46,124.7Z"/><path class="cls-2" d="M506.24,109.94q8.91,0,14.43,5a17.58,17.58,0,0,1,0,25.6q-5.52,5-14.43,5t-14.39-5a17.56,17.56,0,0,1,0-25.6Q497.42,109.94,506.24,109.94Zm0,7.73a9.49,9.49,0,0,0-7.05,2.8,9.77,9.77,0,0,0-2.76,7.16,10.08,10.08,0,0,0,2.76,7.27,10.12,10.12,0,0,0,14.12,0,10,10,0,0,0,2.78-7.27,9.77,9.77,0,0,0-2.76-7.16A9.52,9.52,0,0,0,506.24,117.67Z"/><path class="cls-2" d="M610.81,121.55a12.16,12.16,0,0,1,5.86,4,10.67,10.67,0,0,1,1.87,6.5,11.84,11.84,0,0,1-1.61,6.08,13,13,0,0,1-8.55,6,31.46,31.46,0,0,1-6.17.46H583.09a5.06,5.06,0,0,1-3.46-1,5,5,0,0,1,0-6.06,4,4,0,0,1,2.92-1h.63V109.24h-.63a3.92,3.92,0,0,1-2.92-1,4.16,4.16,0,0,1-1-3,4,4,0,0,1,1.06-3.1,5,5,0,0,1,3.44-1h16.85q7.72,0,11.73,3c2.68,2,4,4.93,4,8.79a10.16,10.16,0,0,1-1.22,5A9.57,9.57,0,0,1,610.81,121.55ZM592.14,109v9.23h4.94q4.5,0,6.35-1.06a3.79,3.79,0,0,0,1.85-3.59,3.86,3.86,0,0,0-1.66-3.48c-1.12-.73-2.91-1.1-5.4-1.1Zm0,16.59v11.17h5.49c3.88,0,6.61-.42,8.2-1.28a4.46,4.46,0,0,0,2.38-4.28,4.54,4.54,0,0,0-2.27-4.32q-2.27-1.29-8-1.29Z"/><path class="cls-2" d="M659.58,136.56h.59a3.65,3.65,0,0,1,4.06,4,3.84,3.84,0,0,1-1.08,3.06,5.46,5.46,0,0,1-3.57.93h-3.44a4.46,4.46,0,0,1-2.73-.69,5.13,5.13,0,0,1-1.48-2.53,25.47,25.47,0,0,1-6.45,3.08,23.22,23.22,0,0,1-6.88,1.06q-5.9,0-9.27-2.93a10.1,10.1,0,0,1-3.37-8,9.81,9.81,0,0,1,4.36-8.53q4.36-3,12.23-3c1.18,0,2.42.06,3.74.18s2.79.32,4.43.59v-.7a7.15,7.15,0,0,0-1.59-5,6.14,6.14,0,0,0-4.71-1.72,15.13,15.13,0,0,0-6.17,1.8,15,15,0,0,1-5.51,1.79,3.86,3.86,0,0,1-2.78-1,3.47,3.47,0,0,1-1.07-2.65q0-3,4.34-4.71T645,109.79q7.8,0,11.17,3T659.58,123Zm-8.86-7.06c-1.22-.27-2.34-.47-3.37-.61a23,23,0,0,0-2.86-.2,12.43,12.43,0,0,0-6.31,1.35,4.17,4.17,0,0,0-2.29,3.74,3.83,3.83,0,0,0,1.46,3.24,6.81,6.81,0,0,0,4.21,1.12,15.36,15.36,0,0,0,4.76-.73,16.37,16.37,0,0,0,4.4-2.28Z"/><path class="cls-2" d="M684.18,114a13.12,13.12,0,0,1,4.18-2.42,14.77,14.77,0,0,1,5-.87,16.55,16.55,0,0,1,12.47,5,17.86,17.86,0,0,1,4.85,12.91,16.08,16.08,0,0,1-4.94,12,17.14,17.14,0,0,1-12.45,4.82,14.36,14.36,0,0,1-6.17-1.23,10.33,10.33,0,0,1-4.27-3.68V143a1.35,1.35,0,0,1-.57,1.15,2.64,2.64,0,0,1-1.59.42H675.1a5.33,5.33,0,0,1-3.54-.93,4.05,4.05,0,0,1-1-3.13,4,4,0,0,1,1-3,4,4,0,0,1,3-1h.59V104.78h-.59a3.66,3.66,0,0,1-4.06-4.07,4,4,0,0,1,1.06-3.11,5.33,5.33,0,0,1,3.59-.95H682a2.26,2.26,0,0,1,1.7.56,2.69,2.69,0,0,1,.53,1.85Zm8.09,4.51a7.57,7.57,0,0,0-5.95,2.69,10,10,0,0,0-2.36,6.83A10.21,10.21,0,0,0,686.3,135a8,8,0,0,0,12,0,10.14,10.14,0,0,0,2.36-6.92,9.9,9.9,0,0,0-2.38-6.81A7.58,7.58,0,0,0,692.27,118.55Z"/><path class="cls-2" d="M742.69,118.77h-.58a4,4,0,0,1-3-1,4.11,4.11,0,0,1-1-3,4,4,0,0,1,1-3.08,5.35,5.35,0,0,1,3.55-.91h6.92a2.47,2.47,0,0,1,1.54.42,1.36,1.36,0,0,1,.55,1.15v24.24h.59a4.17,4.17,0,0,1,3,1,3.94,3.94,0,0,1,1,2.93,4,4,0,0,1-1.06,3.13,5.46,5.46,0,0,1-3.59.93h-6.15a2.47,2.47,0,0,1-1.59-.44,1.43,1.43,0,0,1-.57-1.2v-2.79a11.6,11.6,0,0,1-4.31,4,12.8,12.8,0,0,1-6,1.32q-5.9,0-8.76-3.56T721.49,131V118.77h-.62a3.6,3.6,0,0,1-4-4,3.91,3.91,0,0,1,1-3.08,5.52,5.52,0,0,1,3.61-.91h6.88a2.31,2.31,0,0,1,1.5.42,1.41,1.41,0,0,1,.52,1.15v17q0,4.5,1.24,6.33a4.58,4.58,0,0,0,4.1,1.84,6.33,6.33,0,0,0,5-2.26,8.66,8.66,0,0,0,2-5.91Z"/><path class="cls-2" d="M773.37,144.07a8,8,0,0,1-2,1.12,5.88,5.88,0,0,1-2.07.38,2.63,2.63,0,0,1-2.22-.84,5.56,5.56,0,0,1-.64-3.15v-4.87a5.54,5.54,0,0,1,.81-3.42,3.34,3.34,0,0,1,2.78-1,4,4,0,0,1,3.52,2.09,14.41,14.41,0,0,0,1.35,1.68,12,12,0,0,0,4.18,2.42,17.07,17.07,0,0,0,5.42.8,7.67,7.67,0,0,0,4.21-1,3.09,3.09,0,0,0,1.57-2.68q0-3-8.45-4.1c-1.25-.14-2.23-.28-2.93-.4q-6.37-.88-9.49-3.46a8.56,8.56,0,0,1-3.11-6.94,9.41,9.41,0,0,1,3.73-8q3.73-2.82,10.66-2.82a31.73,31.73,0,0,1,4.89.38,36.46,36.46,0,0,1,5.14,1.19,5.4,5.4,0,0,1,1.63-1.35,4.12,4.12,0,0,1,1.93-.44,2.84,2.84,0,0,1,2.29.93,4.29,4.29,0,0,1,.78,2.8v4.51a3.44,3.44,0,0,1-.8,2.43,3,3,0,0,1-2.27.86c-1,0-2.72-.87-5.15-2.62a12.47,12.47,0,0,0-7.3-2.61,8.79,8.79,0,0,0-4.44.93,2.86,2.86,0,0,0-1.57,2.58q0,2.57,6.59,3.44l3,.37q8.28,1.22,11.37,3.61t3.1,7.12a10,10,0,0,1-4.08,8.55q-4.1,3-11.6,3a40.93,40.93,0,0,1-5.63-.38A38,38,0,0,1,773.37,144.07Z"/><path class="cls-2" d="M823.27,114.44a8.52,8.52,0,0,1,3.63-3.4,12.41,12.41,0,0,1,5.6-1.17q5.79,0,8.92,3.37t3.13,9.66v13.66h.62a4.27,4.27,0,0,1,2.91,7.07,5.16,5.16,0,0,1-3.53,1h-9.08a5.13,5.13,0,0,1-3.5-1,5.06,5.06,0,0,1-.05-6.08,4,4,0,0,1,3-1h.59V125.91q0-4.69-1.16-6.5a4.3,4.3,0,0,0-3.93-1.82,6.45,6.45,0,0,0-5,2.37,8.64,8.64,0,0,0-2.09,6v10.65h.59a4,4,0,0,1,3,1,5,5,0,0,1-.05,6.06,5.2,5.2,0,0,1-3.52,1h-9.08a5.29,5.29,0,0,1-3.55-.93,4.09,4.09,0,0,1-1-3.13,3.54,3.54,0,0,1,4-4h.62V104.78h-.62a4.05,4.05,0,0,1-3-1,4.1,4.1,0,0,1-1-3,4,4,0,0,1,1.06-3.11,5.34,5.34,0,0,1,3.59-.95h6.89a2.31,2.31,0,0,1,1.72.51,2.83,2.83,0,0,1,.47,1.9Z"/><path class="cls-2" d="M869.48,124.7l7.73-7a2.82,2.82,0,0,1-1.56-1,3.51,3.51,0,0,1-.42-1.94,4.16,4.16,0,0,1,1-3.15,5.19,5.19,0,0,1,3.51-.91h8.1a5.36,5.36,0,0,1,3.53.91,3.91,3.91,0,0,1,1,3.08,3.69,3.69,0,0,1-.6,2.34,4.24,4.24,0,0,1-2.47,1.1,9.82,9.82,0,0,0-3.06,1.1,15.39,15.39,0,0,0-3.09,2.56l-2.6,2.71,9.66,12h.92a4.55,4.55,0,0,1,3.19,1,3.9,3.9,0,0,1,1.06,3,4,4,0,0,1-1.06,3.11,5.34,5.34,0,0,1-3.59,1h-9a5.83,5.83,0,0,1-3.44-.8,3,3,0,0,1-1.06-2.57,3.3,3.3,0,0,1,.62-2.1,4.74,4.74,0,0,1,2.05-1.34l-6-7.29-4.5,4.14v7.55a2.82,2.82,0,0,1-.48,1.9,2.29,2.29,0,0,1-1.72.51h-6.59a5.06,5.06,0,0,1-3.46-1,4,4,0,0,1-1-3.11,4.07,4.07,0,0,1,1-3,4,4,0,0,1,2.93-1h.59V104.78h-.59a3.92,3.92,0,0,1-3-1.07,4.13,4.13,0,0,1-1-3,4,4,0,0,1,1.06-3.09,5.14,5.14,0,0,1,3.52-1h6.59a2.29,2.29,0,0,1,1.72.51,2.82,2.82,0,0,1,.48,1.9Z"/><path class="cls-2" d="M936.38,136.56H937a4.06,4.06,0,0,1,3,1.05,4,4,0,0,1,1,3,3.84,3.84,0,0,1-1.08,3.06,5.46,5.46,0,0,1-3.57.93h-3.45a4.41,4.41,0,0,1-2.72-.69,5.13,5.13,0,0,1-1.49-2.53,25.25,25.25,0,0,1-6.44,3.08,23.29,23.29,0,0,1-6.89,1.06q-5.89,0-9.26-2.93a10.06,10.06,0,0,1-3.37-8,9.79,9.79,0,0,1,4.36-8.53q4.35-3,12.23-3c1.17,0,2.41.06,3.73.18s2.8.32,4.43.59v-.7a7.15,7.15,0,0,0-1.59-5,6.13,6.13,0,0,0-4.71-1.72,15.18,15.18,0,0,0-6.17,1.8,14.92,14.92,0,0,1-5.51,1.79,3.88,3.88,0,0,1-2.78-1,3.47,3.47,0,0,1-1.06-2.65c0-2,1.44-3.55,4.34-4.71s6.83-1.74,11.81-1.74q7.8,0,11.17,3T936.38,123Zm-8.87-7.06c-1.22-.27-2.34-.47-3.37-.61a22.68,22.68,0,0,0-2.85-.2A12.47,12.47,0,0,0,915,130a4.19,4.19,0,0,0-2.29,3.74,3.81,3.81,0,0,0,1.47,3.24,6.79,6.79,0,0,0,4.21,1.12,15.45,15.45,0,0,0,4.76-.73,16.32,16.32,0,0,0,4.39-2.28Z"/><ellipse class="cls-2" cx="138" cy="145" rx="53" ry="72"/><circle class="cls-2" cx="137.5" cy="55.5" r="44.5"/><circle class="cls-1" cx="137.91" cy="63.2" r="33.09"/><path d="M134,56.18c0,1.52-4.15-2.18-9-2.18s-9,3.7-9,2.18S120,52,125,52,134,54.65,134,56.18Z"/><path d="M160.21,56.48C160.21,58,155.85,54,151,54s-8.79,4-8.79,2.48,4-4.15,9-4.15S160.21,55,160.21,56.48Z"/><circle class="cls-3" cx="119" cy="77" r="5"/><circle class="cls-3" cx="157" cy="77" r="5"/><path d="M131,61.69c0,1.06-2.66-1.69-6-1.69s-6.39,2.75-6.39,1.69,2.77-2.87,6.19-2.87S131,60.64,131,61.69Z"/><path d="M118.9,63.82c0-1,2.6,1.79,5.94,1.92s6.48-2.51,6.45-1.45-2.88,2.76-6.3,2.63S118.86,64.88,118.9,63.82Z"/><circle cx="125.02" cy="62.75" r="2.98"/><path class="cls-4" d="M147,80.5c1.62,1-4,3.5-9,3.5s-10.62-2.45-9-3.5c10-6.5,3.9-2.5,9-2.5S137,74,147,80.5Z"/><ellipse class="cls-1" cx="138" cy="80.5" rx="3" ry="0.5"/><path class="cls-1" d="M169,87c0,3.31-12.05,16-30,16s-33-11.69-33-15,14,7,32,7S169,83.69,169,87Z"/><ellipse class="cls-1" cx="127" cy="110" rx="11" ry="5" transform="translate(-40.64 121.27) rotate(-44.74)"/><ellipse class="cls-1" cx="141.02" cy="109.91" rx="5" ry="11" transform="translate(-37.77 110.7) rotate(-38.19)"/><ellipse class="cls-5" cx="135" cy="104.36" rx="6.5" ry="4.14"/><path d="M157.13,62.06c0,1-2.67-1.7-6-1.7s-6.39,2.75-6.39,1.7,2.77-2.87,6.19-2.87S157.13,61,157.13,62.06Z"/><path d="M109.3,51.45c2.63,2.94,10.71,0,18.06-6.56S138,33,138,30c0-3.94-13.65-.57-21,6S106.67,48.52,109.3,51.45Z"/><path d="M145,64.19c0-1.06,2.6,1.79,5.93,1.91s6.49-2.51,6.45-1.45-2.88,2.76-6.3,2.64S145,65.24,145,64.19Z"/><circle cx="151.15" cy="63.12" r="2.98"/><path d="M166.65,52c-2.63,2.94-10.72,0-18.07-6.57S138,33.53,138,30.53c0-4,13.65-.57,21,6S169.27,49,166.65,52Z"/><polygon class="cls-3" points="109.28 143.32 102.97 136.2 93.52 137.37 98.34 129.16 94.31 120.54 103.61 122.59 110.56 116.09 111.49 125.56 119.81 130.17 111.09 133.98 109.28 143.32"/><polygon class="cls-3" points="171.91 132.58 165.59 125.46 156.15 126.63 160.97 118.42 156.94 109.8 166.23 111.85 173.19 105.35 174.11 114.82 182.44 119.43 173.72 123.24 171.91 132.58"/><polygon class="cls-3" points="154.91 162.58 148.59 155.46 139.15 156.63 143.97 148.42 139.94 139.8 149.23 141.85 156.19 135.35 157.11 144.82 165.44 149.43 156.72 153.24 154.91 162.58"/><polygon class="cls-3" points="115.91 190.58 109.59 183.46 100.15 184.63 104.97 176.42 100.94 167.8 110.23 169.85 117.19 163.35 118.11 172.82 126.44 177.43 117.72 181.24 115.91 190.58"/><polygon class="cls-3" points="156.91 204.58 150.59 197.46 141.15 198.63 145.97 190.42 141.94 181.8 151.23 183.85 158.19 177.35 159.11 186.82 167.44 191.43 158.72 195.24 156.91 204.58"/></svg>